<svg id="Layer_3" data-name="Layer 3" xmlns="http://www.w3.org/2000/svg" viewBox="0 0 34.49 17.13"><defs><style>.cls-1{fill:#dc562c;}.cls-2{fill:#f05e30;}.cls-3{fill:#fff;}.cls-4{fill:#384457;}.cls-5{fill:#ecebbb;}</style></defs><path class="cls-1" d="M25.07,15c-.94,1.5-5.6,3.1-6.62,1.3-.57-1,1.15-1.74,1.74-1.78Z"/><path class="cls-1" d="M26.92,3.38c-.87-1.73-7.19-5.17-9-2.24-.8,1.26,1.42,3,2.58,3.57Z"/><path class="cls-1" d="M18.72,5.09C18.1,2.4,10.13.44,8.27,3.36c-.8,1.27,1.42,3.05,2.58,3.57Z"/><path class="cls-1" d="M19.06,12.83C18.45,15.52,10.48,17,8.62,14.1,7.81,12.83,10,11.51,11.19,11Z"/><path class="cls-1" d="M7.66,11.3A14,14,0,0,1,1.27,14c-1.65-1.65-1.74-7.49,0-8.85A16.34,16.34,0,0,1,7.66,7.52Z"/><path class="cls-2" d="M32.48,10.14c0,.31,1.82.31,1.67.61-.54,1.13-2.09,2.21-4.09,3a19.89,19.89,0,0,1-3.3,1,18.8,18.8,0,0,1-5.31.41c-.31,0-.64-.06-1-.11a48.23,48.23,0,0,1-5-.87,63.47,63.47,0,0,1-6.17-1.68h0A26.75,26.75,0,0,1,6.17,11.3C4.87,10.68,4,10.06,4,9.51S4.9,8.12,6.4,7.28A29.56,29.56,0,0,1,9.88,5.65a50.91,50.91,0,0,1,6.39-2.08,35.79,35.79,0,0,1,4.57-.87c.42-.06.84-.1,1.24-.12a12.6,12.6,0,0,1,4.74.64A15.26,15.26,0,0,1,29.66,4.5c2.45,1.4,4.26,3.32,4.82,4.87C34.62,10,32.49,10,32.48,10.14Z"/><path class="cls-3" d="M32.23,8.06A1.23,1.23,0,1,0,31,9.28,1.22,1.22,0,0,0,32.23,8.06Z"/><path class="cls-4" d="M31.73,8.06a.72.72,0,1,0-.72.72A.73.73,0,0,0,31.73,8.06Z"/><path class="cls-5" d="M30.06,13.77a19.89,19.89,0,0,1-3.3,1A12.52,12.52,0,0,1,25,7.89a9.35,9.35,0,0,1,1.84-4.67A15.26,15.26,0,0,1,29.66,4.5c-.57,1.89-1.84,3.43-1.28,5.69A10.26,10.26,0,0,0,30.06,13.77Z"/><path class="cls-5" d="M19.93,13.19a7.46,7.46,0,0,0,.54,1.89,48.23,48.23,0,0,1-5-.87,9.1,9.1,0,0,1-.26-1.49c-.33-3.18.55-6.1,1.07-9.15a35.79,35.79,0,0,1,4.57-.87C21.16,6.24,19.4,9.64,19.93,13.19Z"/><path class="cls-5" d="M9.29,12.53A26.75,26.75,0,0,1,6.17,11.3a9.49,9.49,0,0,1,0-2.5A10.07,10.07,0,0,1,6.4,7.28,29.56,29.56,0,0,1,9.88,5.65C9.19,6.8,8.33,10.42,9.29,12.53Z"/></svg>