<svg id="Layer_3" data-name="Layer 3" xmlns="http://www.w3.org/2000/svg" viewBox="0 0 124.65 51.45"><defs><style>.cls-1{fill:#819aa8;}.cls-2{fill:#dedce6;}.cls-3{fill:#c9b6a3;}.cls-4{fill:#d1ecf3;}.cls-5{fill:#2e3f4a;}.cls-6{fill:#758c99;}</style></defs><path class="cls-1" d="M37.6,22.38a10.25,10.25,0,0,0-5.3-2A2.88,2.88,0,0,1,32,24.08Z"/><polygon class="cls-2" points="106.15 39.29 106.55 38.52 105.61 38.68 106.15 39.29"/><polygon class="cls-2" points="105.66 38.82 105.91 37.98 105.01 38.33 105.66 38.82"/><polygon class="cls-2" points="105.1 38.48 105.34 37.65 104.45 37.99 105.1 38.48"/><polygon class="cls-2" points="104.52 38.11 104.69 37.26 103.83 37.69 104.52 38.11"/><polygon class="cls-2" points="103.87 37.8 104.01 36.94 103.17 37.4 103.87 37.8"/><polygon class="cls-2" points="103.22 37.57 103.36 36.71 102.52 37.17 103.22 37.57"/><polygon class="cls-2" points="102.58 37.34 102.72 36.48 101.87 36.94 102.58 37.34"/><polygon class="cls-2" points="101.93 37.12 102.07 36.26 101.22 36.72 101.93 37.12"/><polygon class="cls-2" points="101.29 36.89 101.42 36.03 100.58 36.49 101.29 36.89"/><polygon class="cls-2" points="100.64 36.66 100.78 35.8 99.93 36.26 100.64 36.66"/><polygon class="cls-2" points="99.99 36.43 100.13 35.58 99.29 36.03 99.99 36.43"/><polygon class="cls-2" points="99.31 36.33 99.44 35.48 98.6 35.93 99.31 36.33"/><polygon class="cls-2" points="112.31 36.98 111.59 37.59 111.42 36.73 112.31 36.98"/><polygon class="cls-2" points="111.5 36.76 110.78 37.38 110.62 36.51 111.5 36.76"/><polygon class="cls-2" points="110.62 36.56 109.99 37.17 109.73 36.31 110.62 36.56"/><polygon class="cls-2" points="109.81 36.29 109.17 36.96 108.92 36.07 109.81 36.29"/><polygon class="cls-2" points="109.03 36.09 108.45 36.84 108.12 36.02 109.03 36.09"/><polygon class="cls-2" points="108.22 35.94 107.64 36.68 107.31 35.87 108.22 35.94"/><polygon class="cls-2" points="107.42 35.8 106.83 36.55 106.5 35.73 107.42 35.8"/><polygon class="cls-2" points="106.59 35.7 106 36.44 105.67 35.62 106.59 35.7"/><polygon class="cls-2" points="105.8 35.53 105.21 36.27 104.88 35.46 105.8 35.53"/><polygon class="cls-2" points="105.02 35.4 104.43 36.14 104.1 35.32 105.02 35.4"/><polygon class="cls-2" points="104.26 35.31 103.67 36.05 103.34 35.23 104.26 35.31"/><polygon class="cls-2" points="103.49 35.22 102.91 35.97 102.58 35.15 103.49 35.22"/><polygon class="cls-2" points="102.73 35.13 102.14 35.88 101.81 35.06 102.73 35.13"/><polygon class="cls-2" points="101.97 35.05 101.38 35.79 101.05 34.97 101.97 35.05"/><polygon class="cls-2" points="101.2 34.98 100.62 35.72 100.29 34.9 101.2 34.98"/><polygon class="cls-2" points="100.44 34.87 99.85 35.62 99.53 34.8 100.44 34.87"/><polygon class="cls-2" points="99.68 34.78 99.09 35.53 98.76 34.71 99.68 34.78"/><path class="cls-1" d="M21.84,28.59S12.05,20.1.3,18.56c-.58-.08-.28.58.55,1.21,4.13,3.12,8,6,11.35,10.79-.56,4.72-1.27,8.3-4.32,11.92-.25.37,0,.72.8.38,0,0,7-2.55,12.59-10.89C22.78,29.7,21.84,28.59,21.84,28.59Z"/><path class="cls-1" d="M84.43,13.08C80.7,11.85,77.6,7.59,75.49,5,72.67,1.43,68.06-.31,66.55.05c-.19,0,0,.52.41,1.17a9.9,9.9,0,0,1,.5,9.74,9.1,9.1,0,0,1-4.77,3.75Z"/><path class="cls-1" d="M17.31,29.37a1,1,0,0,0,.2,1.88c6.37,2.12,42.41,11.92,63.95,12.57a66.58,66.58,0,0,0,24.42-4.17c2.07-1-6.52-3.9-8.37-4.29,5.08-.87,14.45,1.49,14.7,1.72,5.93-2.18,10-4.1,11.94-6.62.61-.78.83-1.55-.33-2.13-6.1-3.07-21.49-15.06-41.41-15.66C58.41,11.93,31.84,24.5,17.31,29.37Z"/><path class="cls-2" d="M124.15,30.46c-2,2.52-6,4.44-11.94,6.62-.25-.23-9.62-2.59-14.7-1.72,1.85.39,10.44,3.33,8.37,4.29a66.58,66.58,0,0,1-24.42,4.17c-16.95-.51-42.9-6.69-56.28-10.33C62.49,40.15,102.36,29.55,124.15,30.46Z"/><path class="cls-3" d="M100.88,35.18a17.1,17.1,0,0,0-3.37.18c1.85.39,10.44,3.33,8.37,4.29-.28.1.09-.38-1.39-1.13a46.71,46.71,0,0,0-6.73-2.63c-.56-.17-.77-.31-.76-.47s0-.41.59-.51a19.21,19.21,0,0,1,3.46-.23,44,44,0,0,1,11,1.67c1.14.41,1.52.23,1.25.33l-1.06.4A48.17,48.17,0,0,0,100.88,35.18Z"/><path class="cls-1" d="M84.89,32.92c1,1.72.81,4.92,0,8.26-1,4.25-4.35,8.56-6.94,9.88-1.62.83-2.09.15-1.83-.29.88-1.54,2-7.41,1.65-9.81-.45-2.69-1.55-4.43-1.41-5.5.2-1.62,1.92-1.44,3.08-1.76C80.81,33.31,84.32,32,84.89,32.92Z"/><path class="cls-4" d="M106.37,27.74a1.92,1.92,0,1,0,2-1.86A1.91,1.91,0,0,0,106.37,27.74Z"/><path class="cls-5" d="M106.94,27.75a1.35,1.35,0,1,0,1.38-1.3A1.34,1.34,0,0,0,106.94,27.75Z"/><path class="cls-6" d="M93.2,21.83s0,.16.06.43.14.67.17,1.12q0,.35.09.72c0,.25,0,.52,0,.81.07.55,0,1.15.07,1.75l0,.88a7.91,7.91,0,0,1-.06.86c0,.27-.06.54-.08.8s-.11.48-.15.7a2.41,2.41,0,0,1-.14.6L93,31c-.08.27-.12.43-.12.43s.11-.11.29-.32.21-.24.33-.4a1.9,1.9,0,0,0,.34-.56c.11-.22.23-.46.33-.72a8.69,8.69,0,0,0,.23-.85,3.94,3.94,0,0,0,.16-.92c0-.32,0-.64.07-1l-.06-1a5.4,5.4,0,0,0-.14-.91A6.76,6.76,0,0,0,94,23.2a4.58,4.58,0,0,0-.53-1Z"/><path class="cls-6" d="M90.57,21.75s0,.16.05.43a9,9,0,0,1,.17,1.12c0,.22,0,.47.09.71s0,.53.06.82c.06.55,0,1.15.07,1.75,0,.29,0,.59,0,.88a4.84,4.84,0,0,1-.06.86c0,.27,0,.54-.08.8s-.1.48-.14.7a3.81,3.81,0,0,1-.14.6l-.15.46-.13.43.3-.32.33-.4a2.31,2.31,0,0,0,.34-.56c.1-.22.22-.46.33-.72s.16-.55.23-.85a3.93,3.93,0,0,0,.15-.92c0-.32,0-.64.08-1s0-.64-.07-1a4.44,4.44,0,0,0-.14-.91,7.28,7.28,0,0,0-.47-1.59,5,5,0,0,0-.54-1Z"/><path class="cls-6" d="M87.93,21.67s0,.16.06.43.14.66.17,1.12c0,.22,0,.47.09.71s0,.53,0,.82c.07.55,0,1.15.07,1.75l0,.88a7.91,7.91,0,0,1-.06.86c0,.27-.06.54-.08.8s-.11.48-.15.7a2.41,2.41,0,0,1-.14.6l-.15.46c-.08.27-.12.43-.12.43s.11-.11.29-.32.21-.24.33-.4A2.2,2.2,0,0,0,88.6,30c.11-.22.23-.46.34-.72s.16-.55.22-.85a3.94,3.94,0,0,0,.16-.92c0-.32.05-.64.07-1l-.06-1a4.64,4.64,0,0,0-.14-.92A6.82,6.82,0,0,0,88.71,23a4.58,4.58,0,0,0-.53-1C88,21.8,87.93,21.67,87.93,21.67Z"/></svg>