<svg id="Layer_3" data-name="Layer 3" xmlns="http://www.w3.org/2000/svg" viewBox="0 0 23.65 22.8"><defs><style>.cls-1{fill:#ff7c5f;}.cls-2{fill:#ffad69;}</style></defs><path class="cls-1" d="M10.9,1.13c.59-1.51,1.3-1.51,1.9,0,.76,1.92,2.55,5.64,2.29,6.06.87-.22,5.13.92,7.27,1.43,1.58.38,1.7.84.43,1.87s-4.87,3.39-5.35,3.34c.5.9,1.26,5.7,1.39,7.51.39,1.58-.07,1.66-1.5.89A18,18,0,0,1,12,18.43c-.07.33-3.84,2.49-5.58,3.8-1.3,1-1.8.71-1.51-.89.43-2.36,1.26-7,1.5-7.32C5.7,14,2.55,11.57.9,10.49c-1.36-.9-1.16-1.56.44-1.87S6.83,7.11,8.66,7.14A59.81,59.81,0,0,1,10.9,1.13Z"/><path class="cls-2" d="M6.86,20.33a.4.4,0,0,1-.41.4.41.41,0,1,1,0-.81A.41.41,0,0,1,6.86,20.33Z"/><path class="cls-2" d="M8,18.7a.5.5,0,0,1-1,0,.5.5,0,0,1,1,0Z"/><path class="cls-2" d="M9.22,17.08a.59.59,0,1,1-.59-.58A.58.58,0,0,1,9.22,17.08Z"/><path class="cls-2" d="M10.4,15.45a.68.68,0,1,1-.68-.66A.67.67,0,0,1,10.4,15.45Z"/><path class="cls-2" d="M11.58,13.83a.77.77,0,0,1-1.53,0,.77.77,0,0,1,1.53,0Z"/><path class="cls-2" d="M12.76,12.21a.86.86,0,0,1-1.71,0,.86.86,0,0,1,1.71,0Z"/><path class="cls-2" d="M2.59,10.08a.4.4,0,0,1-.52-.26.4.4,0,0,1,.25-.52.41.41,0,0,1,.52.26A.41.41,0,0,1,2.59,10.08Z"/><path class="cls-2" d="M4.51,10.67a.5.5,0,0,1-.63-.31.49.49,0,0,1,.3-.64.5.5,0,0,1,.33.95Z"/><path class="cls-2" d="M6.43,11.26A.59.59,0,0,1,6,10.14a.58.58,0,0,1,.74.37A.59.59,0,0,1,6.43,11.26Z"/><path class="cls-2" d="M8.35,11.84a.69.69,0,0,1-.86-.42.67.67,0,0,1,.41-.86.68.68,0,0,1,.45,1.28Z"/><path class="cls-2" d="M10.26,12.43a.77.77,0,1,1,.47-1A.76.76,0,0,1,10.26,12.43Z"/><path class="cls-2" d="M11.55,2.66a.42.42,0,0,1,.12-.57.41.41,0,0,1,.57.1.42.42,0,0,1-.11.58A.43.43,0,0,1,11.55,2.66Z"/><path class="cls-2" d="M11.48,4.66A.5.5,0,0,1,11.62,4a.51.51,0,0,1,.7.13.5.5,0,0,1-.84.56Z"/><path class="cls-2" d="M11.41,6.67a.59.59,0,0,1,1-.66.58.58,0,0,1-.16.81A.59.59,0,0,1,11.41,6.67Z"/><path class="cls-2" d="M11.34,8.67a.67.67,0,0,1,.19-.93.67.67,0,1,1,.74,1.11A.66.66,0,0,1,11.34,8.67Z"/><path class="cls-2" d="M11.27,10.68a.75.75,0,0,1,.21-1,.75.75,0,1,1,.84,1.25A.75.75,0,0,1,11.27,10.68Z"/><path class="cls-2" d="M21.07,9.5a.41.41,0,0,1,.58,0,.42.42,0,0,1,0,.59.42.42,0,0,1-.62-.56Z"/><path class="cls-2" d="M19.11,9.93a.5.5,0,1,1,.05.7A.49.49,0,0,1,19.11,9.93Z"/><path class="cls-2" d="M17.15,10.36a.59.59,0,0,1,.83,0,.57.57,0,0,1,.05.82.59.59,0,0,1-.83,0A.57.57,0,0,1,17.15,10.36Z"/><path class="cls-2" d="M15.19,10.78a.68.68,0,0,1,1,0,.67.67,0,0,1,.06.95.68.68,0,0,1-.95,0A.67.67,0,0,1,15.19,10.78Z"/><path class="cls-2" d="M13.23,11.21a.76.76,0,0,1,1.14,1,.76.76,0,0,1-1.14-1Z"/><path class="cls-2" d="M17.48,20a.41.41,0,0,1,.22.54.41.41,0,1,1-.75-.32A.4.4,0,0,1,17.48,20Z"/><path class="cls-2" d="M16.43,18.26a.5.5,0,1,1-.65.27A.5.5,0,0,1,16.43,18.26Z"/><path class="cls-2" d="M15.38,16.55a.59.59,0,1,1-.76.32A.58.58,0,0,1,15.38,16.55Z"/><path class="cls-2" d="M14.33,14.84a.67.67,0,0,1,.36.88.67.67,0,1,1-.36-.88Z"/><path class="cls-2" d="M13.28,13.13a.75.75,0,0,1,.41,1,.76.76,0,1,1-.41-1Z"/></svg>