<svg id="Layer_3" data-name="Layer 3" xmlns="http://www.w3.org/2000/svg" viewBox="0 0 38.05 75.24"><defs><style>.cls-1{fill:#c45555;}.cls-2{fill:#cf5959;}.cls-3{fill:#d95d5d;}.cls-4{fill:#d1ecf3;}.cls-5{fill:#425261;}.cls-6{fill:#eb6565;}.cls-7{fill:#ff6d6d;}.cls-8{fill:#ff8078;}</style></defs><path class="cls-1" d="M18.66,68a8,8,0,0,1-.6,3.16,9.23,9.23,0,0,1-1.86,2.71,13.11,13.11,0,0,1-1.59,1.29c-.28.16-.3,0-.18-.11l.4-.48a11.54,11.54,0,0,0,1.9-3.38,10.63,10.63,0,0,0,.54-3.81C17.2,64.66,17,56.48,17,56.48h2Z"/><path class="cls-2" d="M13.65,67.75a7.72,7.72,0,0,1-7.38,2.73c-.27-.09-.36-.4-.06-.38a8.16,8.16,0,0,0,6.36-3.42c2-2.61,4.21-10.28,4.21-10.28l1.92.74S16.52,64.5,13.65,67.75Z"/><path class="cls-3" d="M9.27,65.07a8.71,8.71,0,0,1-8-1.29c-.2-.2-.13-.52.11-.36a9.81,9.81,0,0,0,7.48.2c3.23-1.2,6.57-5.27,8.28-7.35l1.89,1C17.29,59.26,13.53,63.73,9.27,65.07Z"/><path class="cls-3" d="M6.55,60.77C1.54,60.27,0,55,0,55c-.1-.26.08-.53.25-.29,0,0,2,4.59,6.39,4.59,3.6,0,7.86-1.27,9.07-4.32l1.41,2C15.24,59.47,11.18,61.24,6.55,60.77Z"/><path class="cls-3" d="M15.14,54.37C13.26,55.73,8.61,56.61,6,54S1.89,46.29,2.86,40.75c.56-3.16-.27-.72-.33-.49C1.28,44.52,1.4,52.49,5.35,55.74c3.63,3.39,8.48,1.68,10.36.57Z"/><path class="cls-3" d="M2.49,42.16s2.2-4.23,1.79-7.57A22.54,22.54,0,0,0,3,30.13S2.59,33.47,2.49,35,2.21,42,2.21,42Z"/><path class="cls-1" d="M19.39,68A7.8,7.8,0,0,0,20,71.17a9,9,0,0,0,1.85,2.71,13.11,13.11,0,0,0,1.59,1.29c.28.16.3,0,.18-.11l-.4-.48a11.29,11.29,0,0,1-1.89-3.38,10.42,10.42,0,0,1-.55-3.81c.07-2.73.24-10.91.24-10.91H19Z"/><path class="cls-2" d="M24.4,67.75a7.72,7.72,0,0,0,7.38,2.73c.27-.09.36-.4.07-.38a8.19,8.19,0,0,1-6.37-3.42c-2-2.61-4.21-10.28-4.21-10.28l-1.92.74S21.53,64.5,24.4,67.75Z"/><path class="cls-3" d="M28.78,65.07a8.73,8.73,0,0,0,8-1.29c.19-.2.12-.52-.12-.36a9.81,9.81,0,0,1-7.48.2C26,62.42,22.66,58.35,21,56.27l-1.89,1C20.76,59.26,24.52,63.73,28.78,65.07Z"/><path class="cls-3" d="M31.5,60.77C36.51,60.27,38,55,38,55c.1-.26-.08-.53-.25-.29,0,0-2,4.59-6.39,4.59-3.6,0-7.86-1.27-9.07-4.32l-1.41,2C22.81,59.47,26.87,61.24,31.5,60.77Z"/><path class="cls-3" d="M22.91,54.37c1.88,1.36,6.54,2.24,9.11-.33s4.14-7.75,3.17-13.29c-.56-3.16.27-.72.34-.49,1.24,4.26,1.12,12.23-2.83,15.48-3.63,3.39-8.48,1.68-10.35.57Z"/><path class="cls-3" d="M35.56,42.16s-2.2-4.23-1.79-7.57A23.31,23.31,0,0,1,35,30.13s.44,3.34.54,4.85.28,7.06.28,7.06Z"/><path class="cls-3" d="M22.54,56.28A13.56,13.56,0,0,1,19,57.35a22,22,0,0,1-3.53-1.07,16.94,16.94,0,0,1-.54-6.64h8.18A12.65,12.65,0,0,1,22.54,56.28Z"/><path class="cls-2" d="M19,0C13.85,12.1,8.78,6.73,4.83,16.67c0,1.62,4.76,6.79,10.34,6.64C18.25,21.29,16.39,9.06,19,0Z"/><path class="cls-2" d="M19,0C24.1,12.1,29.27,6.73,33.23,16.67c0,1.62-4.77,6.79-10.35,6.64C19.8,21.29,21.56,9.06,19,0Z"/><path class="cls-3" d="M24.23,52.76c-.06,1.11-.67,2-1.37,1.94s-1.21-1-1.15-2.08.67-2,1.36-1.94S24.29,51.65,24.23,52.76Z"/><path class="cls-4" d="M23.89,52.74c-.05.81-.49,1.44-1,1.42s-.88-.71-.84-1.52.49-1.44,1-1.42S23.93,51.93,23.89,52.74Z"/><path class="cls-5" d="M23.61,52.72c0,.57-.34,1-.7,1s-.62-.49-.59-1.06.35-1,.7-1S23.64,52.16,23.61,52.72Z"/><path class="cls-3" d="M13.82,52.76c.06,1.11.67,2,1.37,1.94s1.21-1,1.16-2.08-.67-2-1.37-1.94S13.76,51.65,13.82,52.76Z"/><path class="cls-4" d="M14.17,52.74c0,.81.48,1.44,1,1.42s.89-.71.84-1.52-.48-1.44-1-1.42S14.12,51.93,14.17,52.74Z"/><path class="cls-5" d="M14.44,52.72c0,.57.34,1,.7,1s.62-.49.59-1.06-.34-1-.7-1S14.41,52.16,14.44,52.72Z"/><path class="cls-6" d="M26.27,27.29c-.66-2.43-2.95-4.14-3.58-4.14H15.36c-.63,0-1.87,1.83-2.42,4.17a38,38,0,0,0-.66,7.43c.05,3.9,1.22,15.6,1.22,15.6C15,51,19,52.17,19,52.17a50.69,50.69,0,0,0,5.53-1.82s1.8-11.72,2.18-15.6C27.21,29.81,26.45,28,26.27,27.29Z"/><path class="cls-7" d="M19,23.15H15.36c-.63,0-2.68,1.67-3.44,4.23a21.11,21.11,0,0,0-.6,7.37c.26,3.89,2.18,15.6,2.18,15.6C15,51,19,52.17,19,52.17h0Z"/><path class="cls-6" d="M23.08,23.39H15s-.18-6.14,0-8.18C15.42,10.23,19,0,19,0S22.73,10.68,23,15.21C23.17,17.25,23.08,23.39,23.08,23.39Z"/><path class="cls-7" d="M19,.16A1.1,1.1,0,0,0,19,0s-3.55,10.23-4,15.21c-.17,2,0,8.18,0,8.18h4Z"/><path class="cls-7" d="M23.06,27.62A1.07,1.07,0,1,1,22,26.4,1.15,1.15,0,0,1,23.06,27.62Z"/><path class="cls-7" d="M24.81,29.75a.69.69,0,1,1-.68-.78A.74.74,0,0,1,24.81,29.75Z"/><path class="cls-7" d="M22.07,31.2a.73.73,0,0,1-.68.78.79.79,0,1,1,.68-.78Z"/><ellipse class="cls-7" cx="23.48" cy="32.58" rx="0.49" ry="0.56"/><path class="cls-7" d="M22.15,34.7a.5.5,0,1,1-.49-.56A.53.53,0,0,1,22.15,34.7Z"/><path class="cls-7" d="M24.48,37.34a.54.54,0,0,1-.49.57.55.55,0,0,1-.5-.57.54.54,0,0,1,.5-.56A.53.53,0,0,1,24.48,37.34Z"/><path class="cls-7" d="M22.51,38.91a.54.54,0,0,1-.5.57.57.57,0,1,1,.5-.57Z"/><path class="cls-7" d="M23.79,25.11a.54.54,0,0,1-.5.56.53.53,0,0,1-.49-.56.54.54,0,0,1,.49-.57A.55.55,0,0,1,23.79,25.11Z"/><path class="cls-7" d="M21,24.43a.5.5,0,1,1-.49-.57A.53.53,0,0,1,21,24.43Z"/><path class="cls-8" d="M15,27.62a1.15,1.15,0,0,0,1.06,1.22,1.23,1.23,0,0,0,0-2.44A1.15,1.15,0,0,0,15,27.62Z"/><path class="cls-8" d="M13.25,29.75a.69.69,0,1,0,.68-.78A.74.74,0,0,0,13.25,29.75Z"/><path class="cls-8" d="M16,31.2a.69.69,0,1,0,.68-.79A.74.74,0,0,0,16,31.2Z"/><path class="cls-8" d="M14.09,32.58a.53.53,0,0,0,.49.56.57.57,0,1,0-.49-.56Z"/><path class="cls-8" d="M15.91,34.7a.54.54,0,0,0,.5.57.57.57,0,1,0-.5-.57Z"/><path class="cls-8" d="M13.58,37.34a.5.5,0,1,0,1,0,.5.5,0,1,0-1,0Z"/><path class="cls-8" d="M15.56,38.91a.53.53,0,0,0,.49.57.57.57,0,0,0,0-1.13A.53.53,0,0,0,15.56,38.91Z"/><path class="cls-8" d="M14.28,25.11a.5.5,0,1,0,1,0,.5.5,0,1,0-1,0Z"/><path class="cls-8" d="M17.09,24.43a.5.5,0,1,0,.5-.57A.53.53,0,0,0,17.09,24.43Z"/><path class="cls-8" d="M18.12,19.68a.6.6,0,0,1-.53.64.59.59,0,0,1-.53-.64.58.58,0,0,1,.53-.63A.59.59,0,0,1,18.12,19.68Z"/><path class="cls-8" d="M17,17.45a.88.88,0,0,1-.79.94,1,1,0,0,1,0-1.88A.88.88,0,0,1,17,17.45Z"/><path class="cls-8" d="M18.35,15.85a.49.49,0,1,1-.49-.57A.54.54,0,0,1,18.35,15.85Z"/><ellipse class="cls-8" cx="16.5" cy="13.68" rx="0.48" ry="0.58"/><path class="cls-8" d="M18.3,11.9a.49.49,0,1,1-.49-.58A.54.54,0,0,1,18.3,11.9Z"/><path class="cls-7" d="M20,19.68a.54.54,0,1,0,1.07,0,.54.54,0,1,0-1.07,0Z"/><path class="cls-7" d="M21.14,17.45a.8.8,0,1,0,.78-.94A.87.87,0,0,0,21.14,17.45Z"/><path class="cls-7" d="M19.79,15.85a.49.49,0,1,0,.48-.57A.54.54,0,0,0,19.79,15.85Z"/><path class="cls-7" d="M21.16,13.68a.49.49,0,1,0,.48-.58A.54.54,0,0,0,21.16,13.68Z"/><path class="cls-7" d="M19.84,11.9a.49.49,0,1,0,.49-.58A.54.54,0,0,0,19.84,11.9Z"/><path class="cls-6" d="M29.91,12.86a.92.92,0,1,1-.91-1A1,1,0,0,1,29.91,12.86Z"/><path class="cls-6" d="M31.66,15.53a.69.69,0,1,1-1.37,0,.69.69,0,1,1,1.37,0Z"/><path class="cls-6" d="M29.15,16.06a.69.69,0,1,1-.69-.74A.72.72,0,0,1,29.15,16.06Z"/><path class="cls-6" d="M31.25,18.19a1,1,0,1,1-1-1.05A1,1,0,0,1,31.25,18.19Z"/><path class="cls-6" d="M28.31,20a.68.68,0,0,1-.65.71.72.72,0,1,1,.65-.71Z"/><path class="cls-6" d="M27.07,10.81a.66.66,0,1,1-.66-.72A.69.69,0,0,1,27.07,10.81Z"/><path class="cls-6" d="M8.28,12.86a.92.92,0,1,0,.91-1A1,1,0,0,0,8.28,12.86Z"/><path class="cls-6" d="M6.53,15.53a.69.69,0,1,0,1.37,0,.72.72,0,0,0-.68-.75A.73.73,0,0,0,6.53,15.53Z"/><path class="cls-6" d="M9,16.06a.69.69,0,1,0,.69-.74A.72.72,0,0,0,9,16.06Z"/><path class="cls-6" d="M6.94,18.19a1,1,0,1,0,1.93,0,1,1,0,0,0-1-1.05A1,1,0,0,0,6.94,18.19Z"/><path class="cls-6" d="M9.88,20a.66.66,0,1,0,1.32,0,.66.66,0,1,0-1.32,0Z"/><path class="cls-6" d="M11.12,10.81a.66.66,0,1,0,.66-.72A.69.69,0,0,0,11.12,10.81Z"/></svg>